<mxfile host="app.diagrams.net" modified="2024-05-03T09:18:23.594Z" agent="Mozilla/5.0 (Macintosh; Intel Mac OS X 10_15_7) AppleWebKit/537.36 (KHTML, like Gecko) Chrome/124.0.0.0 Safari/537.36" version="24.2.8" etag="0dFgHBjBBGizzu2OXanY" type="github">
  <diagram name="Page-1" id="CedjX3xebGfYe28AXzMQ">
    <mxGraphModel>
      <root>
        <mxCell id="0" />
        <mxCell id="1" parent="0" />
      </root>
    </mxGraphModel>
  </diagram>
</mxfile>
